<svg xmlns="http://www.w3.org/2000/svg" viewBox="0 0 64 64">
  <defs>
    <linearGradient id="rainbowA" x1="0" x2="1" y1="0" y2="1">
      <stop offset="0" stop-color="#ff5d72"/>
      <stop offset="0.28" stop-color="#ffc93a"/>
      <stop offset="0.52" stop-color="#8aff72"/>
      <stop offset="0.76" stop-color="#5bb8ff"/>
      <stop offset="1" stop-color="#ca7dff"/>
    </linearGradient>
  </defs>
  <path d="M12 16c0-6 5-11 11-11h18c6 0 11 5 11 11v18c0 6-5 11-11 11H23c-6 0-11-5-11-11z" fill="#4334bf"/>
  <path d="M16 18c0-5 4-8 8-8h16c5 0 8 3 8 8v14c0 5-3 9-8 9H24c-5 0-8-4-8-9z" fill="url(#rainbowA)"/>
  <circle cx="32" cy="27" r="8" fill="#ffffff"/>
  <circle cx="32" cy="27" r="4" fill="#4334bf"/>
  <path d="M22 44h20c0 6-4 10-10 10s-10-4-10-10z" fill="#ffffff"/>
  <circle cx="18" cy="18" r="3.5" fill="#fff7bc"/>
  <circle cx="46" cy="16" r="3" fill="#fff7bc"/>
</svg>
