<svg xmlns="http://www.w3.org/2000/svg" viewBox="0 0 64 64">
  <defs>
    <linearGradient id="colFill" x1="0" x2="1" y1="0" y2="1">
      <stop offset="0" stop-color="#7ae5ff"/>
      <stop offset="1" stop-color="#4f87ff"/>
    </linearGradient>
  </defs>
  <path d="M18 12c0-5 4-9 9-9h10c5 0 9 4 9 9v40c0 5-4 9-9 9H27c-5 0-9-4-9-9z" fill="#4334bf"/>
  <path d="M21 14c0-4 3-7 7-7h8c4 0 7 3 7 7v36c0 4-3 7-7 7h-8c-4 0-7-3-7-7z" fill="url(#colFill)"/>
  <path d="M32 6l9 11h-6v10h-6V17h-6z" fill="#ffffff"/>
  <path d="M32 58l-9-11h6V37h6v10h6z" fill="#ffffff"/>
  <rect x="29" y="21" width="6" height="22" rx="3" fill="#4334bf"/>
  <circle cx="18" cy="46" r="4" fill="#c8f6ff"/>
  <circle cx="46" cy="20" r="3" fill="#c8f6ff"/>
</svg>
