<svg xmlns="http://www.w3.org/2000/svg" viewBox="0 0 64 64">
  <defs>
    <linearGradient id="bombFill" x1="0" x2="1" y1="0" y2="1">
      <stop offset="0" stop-color="#ff94a7"/>
      <stop offset="1" stop-color="#ff4a63"/>
    </linearGradient>
  </defs>
  <path d="M32 4l7 11 14-5-5 14 11 8-11 8 5 14-14-5-7 11-7-11-14 5 5-14-11-8 11-8-5-14 14 5z" fill="#4334bf"/>
  <path d="M32 9l5 9 12-4-4 12 9 6-9 6 4 12-12-4-5 9-5-9-12 4 4-12-9-6 9-6-4-12 12 4z" fill="url(#bombFill)"/>
  <circle cx="32" cy="32" r="10" fill="#4334bf"/>
  <circle cx="32" cy="32" r="5" fill="#fff1a2"/>
  <circle cx="19" cy="19" r="3" fill="#ffffff"/>
  <circle cx="46" cy="22" r="2.5" fill="#ffffff"/>
  <circle cx="43" cy="45" r="3" fill="#ffffff"/>
</svg>
